<?xml version="1.0" standalone="no"?>
<!DOCTYPE svg PUBLIC "-//W3C//DTD SVG 20010904//EN"
 "http://www.w3.org/TR/2001/REC-SVG-20010904/DTD/svg10.dtd">
<svg version="1.0" xmlns="http://www.w3.org/2000/svg"
 width="700.000000pt" height="700.000000pt" viewBox="0 0 700.000000 700.000000"
 preserveAspectRatio="xMidYMid meet">
<metadata>
Created by potrace 1.11, written by Peter Selinger 2001-2013
</metadata>
<g transform="translate(0.000000,700.000000) scale(0.100000,-0.100000)"
fill="#000000" stroke="none">
<path d="M3377 6714 c-1 -1 -44 -5 -95 -8 -51 -4 -101 -9 -110 -10 -9 -2 -44
-6 -77 -10 -86 -10 -244 -41 -381 -75 -244 -61 -570 -194 -804 -331 -107 -62
-316 -201 -356 -238 -11 -9 -42 -35 -69 -57 -28 -22 -55 -44 -61 -50 -6 -5
-42 -37 -79 -70 -111 -98 -260 -258 -355 -380 -17 -22 -36 -47 -43 -55 -7 -8
-23 -31 -37 -50 -13 -19 -28 -39 -33 -45 -45 -53 -182 -287 -262 -450 -134
-270 -243 -613 -281 -875 -2 -19 -6 -44 -9 -55 -2 -11 -6 -40 -10 -65 -3 -25
-8 -63 -11 -85 -9 -54 -13 -655 -5 -655 4 0 8 -17 9 -39 2 -21 5 -49 7 -62 3
-13 7 -46 11 -74 21 -185 107 -494 209 -750 39 -98 111 -246 168 -345 27 -47
58 -101 69 -120 28 -48 172 -254 222 -315 182 -225 405 -439 621 -597 83 -60
261 -178 269 -178 2 0 33 -17 67 -38 97 -57 271 -140 399 -189 36 -14 81 -31
100 -38 44 -18 248 -79 315 -95 81 -19 85 -20 200 -40 151 -26 174 -29 350
-45 106 -9 417 -4 535 9 25 3 70 8 100 11 281 31 705 151 921 260 27 14 51 25
54 25 26 -1 292 151 437 249 245 167 514 414 696 639 92 114 251 343 297 430
74 137 94 176 132 258 41 86 60 131 62 147 0 4 7 20 15 35 43 83 152 466 171
602 4 24 8 47 10 50 1 3 6 36 10 75 4 38 8 72 10 75 8 13 18 211 18 370 1 152
-5 282 -17 370 -2 14 -6 50 -10 80 -6 50 -17 114 -31 194 -3 15 -13 58 -21 95
-9 36 -17 71 -18 76 -20 86 -92 304 -133 405 -39 93 -145 314 -193 398 -72
129 -248 382 -336 482 -314 358 -624 603 -1019 807 -263 135 -658 266 -900
298 -27 4 -53 9 -56 11 -6 3 -131 19 -239 30 -56 6 -428 12 -433 8z"/>
</g>
</svg>
